<svg id="Capa_1" data-name="Capa 1" xmlns="http://www.w3.org/2000/svg" xmlns:xlink="http://www.w3.org/1999/xlink" viewBox="0 0 992 558"><defs><style>.cls-1,.cls-2,.cls-3{fill:none;stroke-miterlimit:10;}.cls-1{stroke:#7082f7;}.cls-2{stroke:#ff6a9c;}.cls-3{stroke:#13d7bc;}.cls-4{fill:url(#Degradado_sin_nombre_25);}.cls-5{fill:url(#Degradado_sin_nombre_25-2);}.cls-6{fill:url(#Degradado_sin_nombre_3);}.cls-7{fill:url(#Degradado_sin_nombre_3-2);}.cls-8{fill:url(#Degradado_sin_nombre_20);}.cls-9{fill:url(#Degradado_sin_nombre_20-2);}</style><linearGradient id="Degradado_sin_nombre_25" x1="433.39" y1="165.52" x2="432.12" y2="168.06" gradientTransform="translate(-682.93 11.81) scale(2.54)" gradientUnits="userSpaceOnUse"><stop offset="0.19" stop-color="#fff"/><stop offset="0.2" stop-color="#f4f5fe"/><stop offset="0.27" stop-color="#d1d7fc"/><stop offset="0.34" stop-color="#b3bcfb"/><stop offset="0.41" stop-color="#9aa7f9"/><stop offset="0.5" stop-color="#8796f8"/><stop offset="0.59" stop-color="#7a8bf8"/><stop offset="0.72" stop-color="#7284f7"/><stop offset="0.97" stop-color="#7082f7"/></linearGradient><linearGradient id="Degradado_sin_nombre_25-2" x1="629.16" y1="29.9" x2="627.89" y2="32.44" xlink:href="#Degradado_sin_nombre_25"/><linearGradient id="Degradado_sin_nombre_3" x1="504.94" y1="195.79" x2="503.67" y2="198.33" gradientTransform="translate(-682.93 11.81) scale(2.54)" gradientUnits="userSpaceOnUse"><stop offset="0.19" stop-color="#fff"/><stop offset="0.2" stop-color="#f0fcfb"/><stop offset="0.25" stop-color="#c2f5ee"/><stop offset="0.3" stop-color="#98eee2"/><stop offset="0.36" stop-color="#74e7d8"/><stop offset="0.42" stop-color="#56e2cf"/><stop offset="0.48" stop-color="#3ddec8"/><stop offset="0.56" stop-color="#2adbc3"/><stop offset="0.64" stop-color="#1dd9bf"/><stop offset="0.75" stop-color="#15d7bd"/><stop offset="0.97" stop-color="#13d7bc"/></linearGradient><linearGradient id="Degradado_sin_nombre_3-2" x1="636.63" y1="106.17" x2="635.36" y2="108.7" xlink:href="#Degradado_sin_nombre_3"/><linearGradient id="Degradado_sin_nombre_20" x1="574.52" y1="56.64" x2="573.25" y2="59.17" gradientTransform="translate(-682.93 11.81) scale(2.54)" gradientUnits="userSpaceOnUse"><stop offset="0.19" stop-color="#fff"/><stop offset="0.21" stop-color="#ffeef4"/><stop offset="0.28" stop-color="#ffcbdc"/><stop offset="0.34" stop-color="#ffadc8"/><stop offset="0.42" stop-color="#ff94b8"/><stop offset="0.51" stop-color="#ff81ab"/><stop offset="0.6" stop-color="#ff74a3"/><stop offset="0.73" stop-color="#ff6c9e"/><stop offset="0.98" stop-color="#ff6a9c"/></linearGradient><linearGradient id="Degradado_sin_nombre_20-2" x1="359.1" y1="38.55" x2="357.83" y2="41.09" xlink:href="#Degradado_sin_nombre_20"/></defs><title>bg-lines</title><path class="cls-1" d="M145.5-62.5a960.63,960.63,0,0,0,42,175c21.57,63.1,45.73,133.83,102.84,206.93,41.2,52.75,87.08,107.17,167.48,138.93,88.1,34.81,194.68,19.71,272.29-35.44a244.9,244.9,0,0,0,78.39-92.24C870.69,202.8,870.31,112.93,953.08,59.92A166.83,166.83,0,0,1,992.5,41.5"/><path class="cls-2" d="M1001,22c-65,8-123,26-234,148C670.92,275.6,582.23,313.35,503.71,310.08,372.8,304.62,257.75,188.9,210.5,79.5a387.77,387.77,0,0,1-31-137"/><circle class="cls-3" cx="757.67" cy="388.25" r="203.25"/><circle class="cls-4" cx="417.03" cy="437.94" r="3.61"/><circle class="cls-5" cx="915.03" cy="92.94" r="3.61"/><circle class="cls-6" cx="599.03" cy="514.94" r="3.61"/><circle class="cls-7" cx="934.03" cy="286.94" r="3.61"/><circle class="cls-8" cx="776.03" cy="160.94" r="3.61"/><circle class="cls-9" cx="228.03" cy="114.94" r="3.61"/></svg>