<svg width="203" height="54" viewBox="0 0 203 54" fill="none" xmlns="http://www.w3.org/2000/svg">
<g clip-path="url(#clip0)">
<path d="M82.7099 26.24V37.49H80.12L79.65 34.22C79.06 36.16 76.1199 37.93 72.8799 37.93C67.3099 37.93 62.95 34.28 62.95 26.89C62.95 19.2 67.4299 15.96 72.8799 15.96C78.2099 15.96 82.13 18.82 82.69 23.38H78.6299C78.0399 21.38 76.1299 19.7 72.8899 19.7C69.2399 19.7 66.91 22.38 66.91 26.89C66.91 31.81 69.9399 34.28 72.8899 34.28C75.9499 34.28 78.8099 32.31 78.8099 30.01H74.5999V26.24H82.7099V26.24Z" fill="black"/>
<path d="M92.3099 37.94C86.6799 37.94 84.9199 33.32 84.9199 29.84C84.9199 26.34 86.3899 21.83 92.3099 21.83C97.3499 21.83 99.6699 25.07 99.6699 28.43V31.32H88.9799C88.9799 33.06 90.3099 34.47 92.3099 34.47C93.8399 34.47 94.7499 33.88 95.3099 33H99.4899C98.6099 35.61 96.3199 37.94 92.3099 37.94ZM89.1299 28.13H95.8699C95.8699 26.45 94.5199 25.3 92.3099 25.3C90.5399 25.3 89.1299 26.45 89.1299 28.13Z" fill="black"/>
<path d="M110.04 34.46C111.57 34.46 112.81 33.84 112.81 33.02C112.81 31.93 110.16 31.64 108.13 31.19C105.69 30.63 102.42 30.48 102.42 26.51C102.42 23.18 105.28 21.83 109.31 21.83C113.08 21.83 116.23 23.54 116.5 27.57H112.67C112.43 26.01 110.73 25.3 109.02 25.3C107.46 25.3 106.37 25.74 106.37 26.54C106.37 27.66 108.7 27.92 110.08 28.1C112.08 28.36 116.77 28.51 116.77 32.96C116.77 36.35 114 37.94 110.14 37.94C105.19 37.94 101.83 36.85 101.75 32.37H105.58C105.68 34.14 108.77 34.46 110.04 34.46Z" fill="black"/>
<path d="M123.09 16.44V37.5H119.26V16.44H123.09Z" fill="black"/>
<path d="M140.52 37.49H137.87L136.99 35.81C136.43 37.05 134.49 37.93 131.81 37.93C128.31 37.93 125.6 36.4 125.6 32.75C125.6 28.8 129.22 27.6 132.55 27.6C134.41 27.6 135.82 28.25 136.7 28.66C136.7 27.28 135.96 25.3 133.25 25.3C131.63 25.3 130.16 25.95 130.16 26.86H126.33C126.33 23.68 129.19 21.82 133.4 21.82C138.73 21.82 140.53 24.71 140.53 29.6V37.49H140.52ZM136.69 32.78V31.51C135.6 30.86 134.3 30.33 132.83 30.33C131.39 30.33 129.8 30.98 129.8 32.57C129.8 34.28 131.07 35.04 132.57 35.04C133.98 35.05 135.98 34.11 136.69 32.78Z" fill="black"/>
<path d="M147.29 24C148.03 22.29 149.68 21.82 151.74 21.82C156.39 21.82 158.54 25.59 158.54 29.98C158.54 34.34 156.45 37.93 151.65 37.93C149.56 37.93 148 37.55 147.29 35.87V37.49H143.46V16.44H147.29V24ZM147.5 29.87C147.5 31.93 148.32 34.46 151.12 34.46C153.56 34.46 154.68 32.22 154.68 29.87C154.68 27.48 153.86 25.3 151.12 25.3C148.32 25.3 147.5 27.77 147.5 29.87Z" fill="black"/>
<path d="M164.69 34.9C164.69 31.98 167.43 29.72 170.23 27.68C172.91 25.71 175.53 24.15 175.53 21.88C175.53 20.82 174.97 19.17 171.29 19.17C169.67 19.17 167.4 19.49 167.4 21.85H164.81C164.81 17.87 167.96 16.67 171.38 16.67C176.39 16.67 178.12 19.23 178.12 21.74C178.12 24.66 175.79 26.83 171.67 29.93C169.49 31.58 167.55 32.85 167.55 34.91L178.48 34.94V37.5H164.7V34.9H164.69Z" fill="black"/>
<path d="M180.98 35.96C180.98 34.87 181.86 34.02 182.95 34.02C184.01 34.02 184.89 34.87 184.89 35.96C184.89 37.02 184.01 37.93 182.95 37.93C181.86 37.94 180.98 37.02 180.98 35.96Z" fill="black"/>
<path d="M186.96 27.24C186.96 21.7 188.43 16.67 194.65 16.67C200.83 16.67 202.31 21.71 202.31 27.24C202.31 32.78 200.84 37.93 194.65 37.93C188.43 37.94 186.96 32.78 186.96 27.24ZM199.71 26.86C199.71 23.15 199.24 19.17 194.62 19.17C189.97 19.17 189.55 23.23 189.55 27.21C189.55 31.19 189.96 35.43 194.53 35.43C199.03 35.43 199.71 31.34 199.71 26.86Z" fill="black"/>
<path d="M26.95 53.2C41.4475 53.2 53.2 41.4475 53.2 26.95C53.2 12.4525 41.4475 0.699997 26.95 0.699997C12.4525 0.699997 0.700012 12.4525 0.700012 26.95C0.700012 41.4475 12.4525 53.2 26.95 53.2Z" stroke="#7082F7" stroke-width="1.4" stroke-miterlimit="10"/>
<path d="M17.26 36.64C11.91 31.29 11.91 22.61 17.26 17.26C22.61 11.91 31.29 11.91 36.64 17.26C41.99 22.61 41.99 31.29 36.64 36.64C31.29 41.99 22.61 41.99 17.26 36.64Z" fill="url(#paint0_linear)"/>
<path d="M8.42001 10.95C9.8173 10.95 10.95 9.81728 10.95 8.42C10.95 7.02272 9.8173 5.89 8.42001 5.89C7.02273 5.89 5.89001 7.02272 5.89001 8.42C5.89001 9.81728 7.02273 10.95 8.42001 10.95Z" fill="url(#paint1_linear)"/>
</g>
<defs>
<linearGradient id="paint0_linear" x1="37.2878" y1="6.1144" x2="21.3797" y2="38.1769" gradientUnits="userSpaceOnUse">
<stop offset="0.1862" stop-color="white"/>
<stop offset="0.2033" stop-color="#F4F5FE"/>
<stop offset="0.2661" stop-color="#D1D7FC"/>
<stop offset="0.3351" stop-color="#B3BCFB"/>
<stop offset="0.4107" stop-color="#9AA7F9"/>
<stop offset="0.4954" stop-color="#8796F8"/>
<stop offset="0.5943" stop-color="#7A8BF8"/>
<stop offset="0.7206" stop-color="#7284F7"/>
<stop offset="0.9684" stop-color="#7082F7"/>
</linearGradient>
<linearGradient id="paint1_linear" x1="10.1764" y1="4.87533" x2="7.91743" y2="9.39431" gradientUnits="userSpaceOnUse">
<stop offset="0.1862" stop-color="white"/>
<stop offset="0.2033" stop-color="#F4F5FE"/>
<stop offset="0.2661" stop-color="#D1D7FC"/>
<stop offset="0.3351" stop-color="#B3BCFB"/>
<stop offset="0.4107" stop-color="#9AA7F9"/>
<stop offset="0.4954" stop-color="#8796F8"/>
<stop offset="0.5943" stop-color="#7A8BF8"/>
<stop offset="0.7206" stop-color="#7284F7"/>
<stop offset="0.9684" stop-color="#7082F7"/>
</linearGradient>
<clipPath id="clip0">
<rect width="202.3" height="53.9" fill="white"/>
</clipPath>
</defs>
</svg>
