<svg width="316" height="98" viewBox="0 0 316 98" fill="none" xmlns="http://www.w3.org/2000/svg">
<path d="M304.05 24.62H91.5C83.04 9.91 67.18 0 49 0C21.94 0 0 21.94 0 49C0 76.06 21.94 98 49 98C66.84 98 82.45 88.46 91.02 74.21H304.05C310.65 74.21 316 68.86 316 62.26V36.57C316 29.97 310.65 24.62 304.05 24.62Z" fill="white"/>
<path d="M129.16 48.4V64.47H125.46L124.79 59.8C123.95 62.58 119.74 65.1 115.11 65.1C107.16 65.1 100.93 59.88 100.93 49.32C100.93 38.34 107.33 33.71 115.11 33.71C122.73 33.71 128.32 37.79 129.12 44.31H123.31C122.47 41.45 119.73 39.05 115.11 39.05C109.89 39.05 106.57 42.88 106.57 49.32C106.57 56.35 110.9 59.88 115.11 59.88C119.49 59.88 123.57 57.06 123.57 53.78H117.55V48.4H129.16Z" fill="black"/>
<path d="M142.87 65.11C134.83 65.11 132.31 58.5 132.31 53.54C132.31 48.53 134.41 42.1 142.87 42.1C150.06 42.1 153.39 46.73 153.39 51.52V55.64H138.12C138.12 58.12 140.01 60.14 142.87 60.14C145.06 60.14 146.36 59.3 147.16 58.04H153.13C151.88 61.78 148.6 65.11 142.87 65.11ZM138.33 51.09H147.97C147.97 48.69 146.03 47.05 142.88 47.05C140.35 47.06 138.33 48.7 138.33 51.09Z" fill="black"/>
<path d="M168.2 60.14C170.39 60.14 172.16 59.26 172.16 58.08C172.16 56.52 168.37 56.1 165.47 55.47C161.98 54.67 157.31 54.46 157.31 48.78C157.31 44.03 161.39 42.09 167.16 42.09C172.55 42.09 177.05 44.53 177.43 50.29H171.96C171.62 48.06 169.18 47.05 166.74 47.05C164.51 47.05 162.95 47.68 162.95 48.82C162.95 50.42 166.27 50.8 168.25 51.05C171.11 51.43 177.8 51.64 177.8 57.99C177.8 62.83 173.84 65.1 168.33 65.1C161.26 65.1 156.47 63.54 156.34 57.15H161.81C161.97 59.68 166.39 60.14 168.2 60.14Z" fill="black"/>
<path d="M186.84 34.39V64.47H181.37V34.39H186.84Z" fill="black"/>
<path d="M211.74 64.47H207.95L206.69 62.07C205.89 63.84 203.11 65.1 199.28 65.1C194.27 65.1 190.4 62.91 190.4 57.69C190.4 52.05 195.58 50.33 200.33 50.33C202.98 50.33 205 51.26 206.26 51.84C206.26 49.86 205.21 47.04 201.34 47.04C199.03 47.04 196.92 47.97 196.92 49.27H191.45C191.45 44.73 195.53 42.08 201.55 42.08C209.17 42.08 211.73 46.2 211.73 53.19V64.47H211.74ZM206.27 57.74V55.93C204.71 55 202.86 54.25 200.76 54.25C198.7 54.25 196.43 55.18 196.43 57.45C196.43 59.89 198.24 60.98 200.39 60.98C202.4 60.98 205.26 59.64 206.27 57.74Z" fill="black"/>
<path d="M221.42 45.2C222.47 42.76 224.83 42.09 227.77 42.09C234.42 42.09 237.49 47.48 237.49 53.74C237.49 59.97 234.5 65.1 227.64 65.1C224.65 65.1 222.42 64.55 221.41 62.15V64.46H215.94V34.39H221.41V45.2H221.42ZM221.71 53.58C221.71 56.53 222.89 60.14 226.89 60.14C230.38 60.14 231.98 56.94 231.98 53.58C231.98 50.17 230.8 47.06 226.89 47.06C222.89 47.06 221.71 50.59 221.71 53.58Z" fill="black"/>
<path d="M246.27 60.77C246.27 56.6 250.18 53.36 254.18 50.46C258.01 47.64 261.75 45.41 261.75 42.17C261.75 40.66 260.95 38.3 255.69 38.3C253.38 38.3 250.14 38.76 250.14 42.13H246.44C246.44 36.45 250.94 34.72 255.82 34.72C262.97 34.72 265.46 38.38 265.46 41.96C265.46 46.13 262.14 49.24 256.25 53.66C253.14 56.02 250.36 57.83 250.36 60.77L265.97 60.81V64.47H246.28V60.77H246.27Z" fill="black"/>
<path d="M269.54 62.29C269.54 60.73 270.8 59.51 272.36 59.51C273.87 59.51 275.14 60.73 275.14 62.29C275.14 63.8 273.88 65.11 272.36 65.11C270.8 65.11 269.54 63.8 269.54 62.29Z" fill="black"/>
<path d="M278.08 49.83C278.08 41.92 280.18 34.73 289.06 34.73C297.9 34.73 300 41.92 300 49.83C300 57.74 297.9 65.1 289.06 65.1C280.18 65.11 278.08 57.74 278.08 49.83ZM296.3 49.29C296.3 43.99 295.63 38.31 289.02 38.31C282.37 38.31 281.78 44.12 281.78 49.8C281.78 55.48 282.37 61.54 288.89 61.54C295.33 61.53 296.3 55.68 296.3 49.29Z" fill="black"/>
<path d="M49.5 86.91C70.2107 86.91 87 70.1207 87 49.41C87 28.6993 70.2107 11.91 49.5 11.91C28.7893 11.91 12 28.6993 12 49.41C12 70.1207 28.7893 86.91 49.5 86.91Z" stroke="#7082F7" stroke-width="2" stroke-miterlimit="10"/>
<path d="M35.66 63.25C28.02 55.61 28.02 43.21 35.66 35.57C43.3 27.93 55.7 27.93 63.34 35.57C70.98 43.21 70.98 55.61 63.34 63.25C55.7 70.9 43.3 70.9 35.66 63.25Z" fill="url(#paint0_linear)"/>
<path d="M23.03 26.55C25.0238 26.55 26.64 24.9338 26.64 22.94C26.64 20.9463 25.0238 19.33 23.03 19.33C21.0363 19.33 19.42 20.9463 19.42 22.94C19.42 24.9338 21.0363 26.55 23.03 26.55Z" fill="url(#paint1_linear)"/>
<defs>
<linearGradient id="paint0_linear" x1="64.2682" y1="19.6464" x2="41.5424" y2="65.4501" gradientUnits="userSpaceOnUse">
<stop offset="0.1862" stop-color="white"/>
<stop offset="0.2033" stop-color="#F4F5FE"/>
<stop offset="0.2661" stop-color="#D1D7FC"/>
<stop offset="0.3351" stop-color="#B3BCFB"/>
<stop offset="0.4107" stop-color="#9AA7F9"/>
<stop offset="0.4954" stop-color="#8796F8"/>
<stop offset="0.5943" stop-color="#7A8BF8"/>
<stop offset="0.7206" stop-color="#7284F7"/>
<stop offset="0.9684" stop-color="#7082F7"/>
</linearGradient>
<linearGradient id="paint1_linear" x1="25.5712" y1="17.877" x2="22.3442" y2="24.3327" gradientUnits="userSpaceOnUse">
<stop offset="0.1862" stop-color="white"/>
<stop offset="0.2033" stop-color="#F4F5FE"/>
<stop offset="0.2661" stop-color="#D1D7FC"/>
<stop offset="0.3351" stop-color="#B3BCFB"/>
<stop offset="0.4107" stop-color="#9AA7F9"/>
<stop offset="0.4954" stop-color="#8796F8"/>
<stop offset="0.5943" stop-color="#7A8BF8"/>
<stop offset="0.7206" stop-color="#7284F7"/>
<stop offset="0.9684" stop-color="#7082F7"/>
</linearGradient>
</defs>
</svg>
